<svg width="33" height="33" viewBox="0 0 33 33" fill="#FFFFFF" xmlns="http://www.w3.org/2000/svg">
<path fill-rule="evenodd" clip-rule="evenodd" d="M16.562 32.7109C7.87254 32.7109 0.69426 25.5326 0.69426 16.8431C0.69426 8.15362 7.86035 0.975342 16.5498 0.975342C25.2393 0.975342 32.4298 8.15362 32.4298 16.8431C32.4298 25.5326 25.2515 32.7109 16.562 32.7109ZM14.6121 24.8136C15.063 24.8136 15.453 24.6064 15.7455 24.1555L23.9353 11.3223C24.1181 11.0542 24.2765 10.7251 24.2765 10.4326C24.2765 9.78672 23.7037 9.38454 23.1066 9.38454C22.7531 9.38454 22.3997 9.59173 22.1316 10.0061L14.5511 22.0593L10.5172 17.0016C10.2003 16.5994 9.87124 16.4531 9.48125 16.4531C8.88408 16.4531 8.3844 16.9284 8.3844 17.5744C8.3844 17.879 8.50627 18.2081 8.71346 18.464L13.4177 24.1676C13.7955 24.6308 14.1611 24.8136 14.6121 24.8136Z" fill="#FF7AE9"/>
</svg>
