<svg version="1.1" id="Слой_1" xmlns="http://www.w3.org/2000/svg" xmlns:xlink="http://www.w3.org/1999/xlink" x="0px" y="0px"
  viewBox="0 0 351 737" style="enable-background:new 0 0 351 737;" xml:space="preserve">
<style type="text/css">
 .st0{fill:#503EA9;}
</style>
<polygon class="st0" points="345.7,531 343.5,537.8 339.9,544.2 335.5,549.5 330.4,553.2 325.2,554.7 317.8,555.3 309.9,556.2 
 303,559.2 295.7,564 290.9,569 287.8,574.8 285.4,580.7 284.2,587.2 284.2,595 285.2,599.7 287.4,605.5 290.2,609.7 294.7,615.3 
 298.2,618.2 301.7,620.7 306.4,623 310.4,624.2 314.9,625 319.2,625.3 323.7,625.5 327.9,626 332.2,628.2 335.5,630.8 338.9,634.7 
 340.4,637.2 342.2,640 343.7,643.7 345.7,648.6 346.7,653.2 347.4,657.5 347.4,665.2 347.4,680.2 347.4,703.7 347.1,706.5 
 346.5,709.4 345.7,712.5 344.6,715.2 343.5,717.7 341.9,720.5 340.1,722.9 338.4,725 336.4,727 333.9,729.2 331.6,730.8 
 329.3,732.2 326,733.8 323.3,734.8 319.3,735.9 315.8,736.5 312.4,736.5 213.2,736.5 38.4,736.5 35.1,736.4 31.9,735.9 27,734.6 
 23.2,733.1 20.2,731.4 18,730 15.5,728 13.4,726 10.8,723.1 8.6,719.9 7.2,717.3 5.5,713.4 4.3,709.5 3.7,706.3 3.6,32 4.2,27.9 
 5,24.9 5.7,22.8 6.9,20 8.3,17.3 10.2,14.5 12.1,12.2 15.6,8.7 17.6,7.1 20.3,5.3 23,3.8 25.4,2.7 28.3,1.7 31.9,0.8 34.4,0.5 
 55.4,0.5 315.2,0.5 318.2,0.7 320.4,1.2 322.8,1.8 324.8,2.5 327.2,3.5 330,4.9 332.4,6.5 334.5,8.1 336.9,10.2 338.9,12.3 
 340.8,14.7 342.2,16.8 343.6,19.4 344.8,21.9 346,25.4 347.4,31.2 347.4,458.5 347.4,523.8 "/>
</svg>