<svg width="70" height="213" viewBox="0 0 70 213" fill="none" xmlns="http://www.w3.org/2000/svg">
<path d="M33.4795 71.6778C14.8655 72.4152 0 87.8355 0 106.75C0 126.135 15.6143 141.85 34.8754 141.85C40.9142 141.85 46.8125 142.653 51.1626 147.375C51.2969 147.521 51.4506 147.683 51.6215 147.863C54.8358 151.257 64.1049 161.042 64.1049 187.692V213L70 213V0L64.1049 0.188281V25.4961C64.1049 52.1456 54.836 61.9309 51.6217 65.3243C51.4508 65.5047 51.297 65.6671 51.1626 65.813C49.2081 67.9347 45.5665 71.4172 35.1812 71.6515C34.6134 71.6466 34.0463 71.6704 33.4795 71.6778Z" fill="#F2F2FE"/>
</svg>
