<svg width="71" height="213" viewBox="0 0 71 213" fill="none" xmlns="http://www.w3.org/2000/svg">
<path d="M33.5991 72.0805C14.9186 72.8158 0 88.1922 0 107.053C0 126.383 15.67 142.053 35 142.053C41.0604 142.053 46.9797 142.853 51.3454 147.562C51.4802 147.707 51.6344 147.869 51.8058 148.049C55.0317 151.433 64.3339 161.19 64.3339 187.764V213L70.25 213V0.606934L64.3339 0.794678V26.0304C64.3339 52.6039 55.0319 62.3614 51.8061 65.7451C51.6346 65.925 51.4802 66.0869 51.3454 66.2324C49.3838 68.348 45.7293 71.8206 35.3069 72.0543C34.737 72.0494 34.1679 72.0732 33.5991 72.0805Z" fill="#F2F2FE"/>
</svg>
